<svg version="1.1" id="Layer_1" xmlns="http://www.w3.org/2000/svg" xmlns:xlink="http://www.w3.org/1999/xlink" x="0px" y="0px"
	 width="50px" height="57px" viewBox="0 0 1280 1280" enable-background="new 0 0 1280 1280" xml:space="preserve">
<path fill="#25F3ED" opacity="1.000000" stroke="none" 
	d="
M1020.601379,1147.073486 
	C1014.843811,1147.706909 1009.086426,1148.891724 1003.328552,1148.894287 
	C785.296692,1148.988281 567.264771,1148.985840 349.232880,1148.903442 
	C343.801422,1148.901489 338.370361,1147.855103 332.500427,1147.151123 
	C332.061707,1147.006592 332.049072,1147.007446 332.049072,1147.007446 
	C331.153778,1146.547363 330.258484,1146.087280 328.710266,1145.319580 
	C328.057281,1145.012085 328.048462,1145.003174 328.048462,1145.003174 
	C327.526276,1144.676880 327.004059,1144.350586 325.718994,1143.556152 
	C324.956146,1143.088013 324.974518,1143.102051 324.974548,1143.102051 
	C323.977600,1142.316528 322.980652,1141.531128 321.485046,1140.401489 
	C320.986420,1140.057251 320.974213,1140.067627 320.974213,1140.067627 
	C320.650116,1139.710449 320.326019,1139.353271 319.489929,1138.520752 
	C318.977905,1138.045532 318.991730,1138.032593 318.991730,1138.032593 
	C318.081635,1136.828369 317.171570,1135.624146 315.953918,1133.908691 
	C315.172211,1132.848633 314.698029,1132.299805 314.223846,1131.750854 
	C313.140015,1129.267334 312.056183,1126.783936 310.681732,1123.653687 
	C310.289185,1122.691528 310.187286,1122.375977 310.085358,1122.060547 
	C309.796936,1119.598022 309.508514,1117.135620 309.039124,1113.851685 
	C308.854401,1098.034302 308.647247,1083.033447 309.011322,1068.046387 
	C309.087830,1064.896484 310.527100,1061.150024 312.602631,1058.790283 
	C320.630493,1049.662964 329.344513,1041.141235 337.439514,1032.069702 
	C341.112335,1027.953735 345.153351,1026.517822 350.562775,1026.520264 
	C567.840454,1026.617065 785.118103,1026.602661 1002.395813,1026.618530 
	C1004.242493,1026.618652 1006.089233,1026.836792 1007.935913,1026.953125 
	C1010.464172,1027.182617 1012.992432,1027.412231 1016.216064,1027.826050 
	C1016.911499,1028.010376 1016.933411,1028.013062 1016.933411,1028.013062 
	C1018.428101,1028.554199 1019.922852,1029.095215 1022.049133,1029.793701 
	C1024.442871,1031.060791 1026.205078,1032.170654 1027.967285,1033.280518 
	C1030.329102,1035.544434 1032.690918,1037.808350 1035.477051,1040.405518 
	C1037.415771,1043.203491 1038.930542,1045.668091 1040.445190,1048.132690 
	C1040.883423,1049.366089 1041.321777,1050.599487 1042.197021,1052.582764 
	C1042.699707,1053.865112 1042.765381,1054.397583 1042.831299,1054.930054 
	C1043.062012,1057.924683 1043.292725,1060.919189 1043.652710,1064.864136 
	C1043.741211,1080.749268 1043.700439,1095.684204 1043.659668,1110.619019 
	C1043.459839,1113.328613 1043.260010,1116.038208 1042.888672,1119.367920 
	C1042.638794,1120.669922 1042.560547,1121.351807 1042.482300,1122.033569 
	C1042.079590,1123.190918 1041.676880,1124.348389 1040.986084,1126.315552 
	C1040.582642,1127.315674 1040.466797,1127.505615 1040.354736,1127.697998 
	C1040.352173,1127.702271 1040.393677,1127.732178 1040.414551,1127.750000 
	C1039.041748,1129.939941 1037.668945,1132.129883 1036.005371,1134.698364 
	C1035.570679,1135.293701 1035.426758,1135.510498 1035.282837,1135.727295 
	C1033.711060,1137.341675 1032.139160,1138.956177 1030.095703,1140.920532 
	C1029.417603,1141.579224 1029.329102,1141.747559 1029.358521,1141.775635 
	C1027.933472,1142.655762 1026.508423,1143.535889 1024.565918,1144.738525 
	C1024.048584,1145.060913 1024.137817,1145.109741 1024.137817,1145.109619 
	C1023.516541,1145.393799 1022.895264,1145.677979 1021.351624,1146.425903 
	C1020.429260,1146.889771 1020.320557,1147.077881 1020.320557,1147.077881 
	C1020.320557,1147.077881 1020.601379,1147.073486 1020.601379,1147.073486 
z"/>
<path fill="#25F2EC" opacity="1.000000" stroke="none" 
	d="
M607.996399,746.507263 
	C610.089172,748.270630 612.182007,750.034058 615.486938,752.818787 
	C615.486938,747.355591 615.486938,743.037537 615.808167,738.139160 
	C632.851685,719.972107 649.572327,702.383911 666.296570,684.799133 
	C690.004333,659.871399 713.714722,634.946228 737.424072,610.020020 
	C737.609070,612.669617 737.957458,615.319397 737.954834,617.968811 
	C737.912415,661.116333 737.823242,704.263794 737.761292,747.411316 
	C737.759644,748.534668 737.944946,749.658264 738.141052,751.903625 
	C739.927368,750.444641 741.176270,749.594421 742.224548,748.543945 
	C782.798645,707.883850 823.313843,667.164795 863.931763,626.548523 
	C880.967224,609.513611 902.962158,609.514587 920.108154,626.398865 
	C930.544678,636.675964 940.930664,647.007507 951.179016,657.471619 
	C968.136292,674.785767 968.125488,696.525146 950.987183,713.704163 
	C906.180115,758.617676 861.254578,803.413025 816.389282,848.268555 
	C780.003357,884.646423 743.536133,920.943848 707.327271,957.497192 
	C697.607910,967.308960 687.039978,973.984680 672.603455,972.506104 
	C662.636292,971.485291 654.861023,966.531799 647.989502,959.660767 
	C611.032166,922.705811 574.049255,885.776367 537.090881,848.822449 
	C532.742432,844.474426 528.490173,840.030212 524.303345,835.109619 
	C552.274353,805.228210 580.135376,775.867737 607.996399,746.507263 
z"/>
<path fill="#FC2C55" opacity="1.000000" stroke="none" 
	d="
M737.525635,609.635376 
	C713.714722,634.946228 690.004333,659.871399 666.296570,684.799133 
	C649.572327,702.383911 632.851685,719.972107 615.819397,737.732239 
	C615.382263,735.748108 615.144104,733.590454 615.143860,731.432861 
	C615.124878,578.793091 615.175720,426.153229 615.052246,273.513519 
	C615.038452,256.500977 621.583435,243.862259 637.156799,236.602661 
	C640.819458,234.895309 645.096985,233.757233 649.114197,233.689072 
	C667.271729,233.381027 685.442017,233.295425 703.598816,233.622803 
	C720.612366,233.929581 736.105225,248.934860 737.445801,265.859467 
	C737.813538,270.501434 737.957397,275.172607 737.958618,279.830444 
	C737.986084,386.811615 737.982361,493.792816 737.964722,600.773987 
	C737.964233,603.599609 737.744690,606.425232 737.525635,609.635376 
z"/>
<path fill="#FB2C55" opacity="1.000000" stroke="none" 
	d="
M607.881714,746.218933 
	C580.135376,775.867737 552.274353,805.228210 524.154663,834.806213 
	C517.293640,828.708252 510.577515,822.506897 504.108215,816.057922 
	C470.243073,782.299133 436.483521,748.434387 402.589600,714.704590 
	C392.637329,704.800537 387.452209,693.373901 389.772369,679.149536 
	C391.018372,671.510498 394.475281,664.906982 399.839783,659.449646 
	C411.282837,647.808655 422.628174,636.047668 434.535004,624.892395 
	C450.655396,609.789551 472.563843,610.296875 488.215820,625.883911 
	C527.059265,664.566101 565.771729,703.379822 604.521301,742.156128 
	C605.690979,743.326599 606.689026,744.668579 607.881714,746.218933 
z"/>
<path fill="#D83658" opacity="1.000000" stroke="none" 
	d="
M1007.899536,1026.967285 
	C1006.089233,1026.836792 1004.242493,1026.618652 1002.395813,1026.618530 
	C785.118103,1026.602661 567.840454,1026.617065 350.562775,1026.520264 
	C345.153351,1026.517822 341.112335,1027.953735 337.439514,1032.069702 
	C329.344513,1041.141235 320.630493,1049.662964 312.602631,1058.790283 
	C310.527100,1061.150024 309.087830,1064.896484 309.011322,1068.046387 
	C308.647247,1083.033447 308.854401,1098.034302 308.981262,1112.922119 
	C309.156464,1095.164917 309.020538,1077.512451 309.323273,1059.867554 
	C309.545471,1046.914307 320.231598,1032.775146 332.720490,1029.244141 
	C338.690002,1027.556396 345.081360,1026.604980 351.282410,1026.601318 
	C567.995239,1026.470093 784.708191,1026.490601 1001.421082,1026.512329 
	C1003.568420,1026.512573 1005.715820,1026.818359 1007.899536,1026.967285 
z"/>
<path fill="#D83658" opacity="1.000000" stroke="none" 
	d="
M1043.568115,1110.752686 
	C1043.700439,1095.684204 1043.741211,1080.749268 1043.723877,1065.613037 
	C1043.602783,1080.569824 1043.539795,1095.728149 1043.568115,1110.752686 
z"/>
<path fill="#D83658" opacity="1.000000" stroke="none" 
	d="
M1040.306519,1048.145264 
	C1038.930542,1045.668091 1037.415771,1043.203491 1035.879883,1040.874023 
	C1037.294922,1043.392090 1038.731445,1045.774902 1040.306519,1048.145264 
z"/>
<path fill="#D83658" opacity="1.000000" stroke="none" 
	d="
M1027.946777,1033.339111 
	C1026.205078,1032.170654 1024.442871,1031.060791 1022.779236,1030.116699 
	C1024.560547,1031.320923 1026.243408,1032.359375 1027.946777,1033.339111 
z"/>
<path fill="#D83658" opacity="1.000000" stroke="none" 
	d="
M1042.404785,1121.986694 
	C1042.560547,1121.351807 1042.638794,1120.669922 1042.787476,1120.176758 
	C1042.681030,1120.890259 1042.504150,1121.415039 1042.404785,1121.986694 
z"/>
<path fill="#D83658" opacity="1.000000" stroke="none" 
	d="
M1042.825439,1054.903076 
	C1042.765381,1054.397583 1042.699707,1053.865112 1042.613525,1053.472656 
	C1042.668579,1054.033936 1042.744141,1054.454956 1042.825439,1054.903076 
z"/>
<path fill="#D83658" opacity="1.000000" stroke="none" 
	d="
M314.353210,1131.718140 
	C314.698029,1132.299805 315.172211,1132.848633 315.502686,1133.303711 
	C315.066833,1132.701660 314.774689,1132.193604 314.353210,1131.718140 
z"/>
<path fill="#D83658" opacity="1.000000" stroke="none" 
	d="
M310.147156,1122.051025 
	C310.187286,1122.375977 310.289185,1122.691528 310.410278,1123.029785 
	C310.355927,1122.715576 310.282440,1122.378540 310.147156,1122.051025 
z"/>
<path fill="#D83658" opacity="1.000000" stroke="none" 
	d="
M1040.432251,1127.721069 
	C1040.393677,1127.732178 1040.352173,1127.702271 1040.354736,1127.697998 
	C1040.466797,1127.505615 1040.582642,1127.315674 1040.732910,1127.200684 
	C1040.631958,1127.285767 1040.526001,1127.424438 1040.432251,1127.721069 
z"/>
<path fill="#D83658" opacity="1.000000" stroke="none" 
	d="
M1035.305176,1135.822998 
	C1035.426758,1135.510498 1035.570679,1135.293701 1035.730591,1135.179199 
	C1035.607056,1135.493896 1035.467285,1135.706421 1035.305176,1135.822998 
z"/>
<path fill="#D83658" opacity="1.000000" stroke="none" 
	d="
M1029.383789,1141.748779 
	C1029.329102,1141.747559 1029.417603,1141.579224 1029.656494,1141.275879 
	C1029.708862,1141.273315 1029.615601,1141.420166 1029.383789,1141.748779 
z"/>
<path fill="#D83658" opacity="1.000000" stroke="none" 
	d="
M1020.620483,1147.106689 
	C1020.601379,1147.073486 1020.320557,1147.077881 1020.320557,1147.077881 
	C1020.320557,1147.077881 1020.429260,1146.889771 1020.457764,1146.926758 
	C1020.486267,1146.963867 1020.639526,1147.139771 1020.620483,1147.106689 
z"/>
<path fill="#D83658" opacity="1.000000" stroke="none" 
	d="
M1016.969849,1028.006592 
	C1016.933411,1028.013062 1016.911499,1028.010376 1016.953735,1028.011475 
	C1016.996033,1028.012573 1017.006348,1028.000244 1016.969849,1028.006592 
z"/>
<path fill="#D83658" opacity="1.000000" stroke="none" 
	d="
M318.952576,1138.030029 
	C318.991730,1138.032593 318.977905,1138.045532 318.942993,1138.047119 
	C318.908081,1138.048828 318.913452,1138.027344 318.952576,1138.030029 
z"/>
<path fill="#D83658" opacity="1.000000" stroke="none" 
	d="
M320.938629,1140.062012 
	C320.974213,1140.067627 320.986420,1140.057251 320.948181,1140.062988 
	C320.909943,1140.068848 320.903046,1140.056396 320.938629,1140.062012 
z"/>
<path fill="#D83658" opacity="1.000000" stroke="none" 
	d="
M324.935120,1143.101196 
	C324.974518,1143.102051 324.956146,1143.088013 324.918518,1143.095337 
	C324.880859,1143.102661 324.895691,1143.100342 324.935120,1143.101196 
z"/>
<path fill="#D83658" opacity="1.000000" stroke="none" 
	d="
M328.012238,1145.008789 
	C328.048462,1145.003174 328.057281,1145.012085 328.016174,1145.013428 
	C327.975067,1145.014893 327.976013,1145.014282 328.012238,1145.008789 
z"/>
<path fill="#D83658" opacity="1.000000" stroke="none" 
	d="
M1024.120117,1145.139893 
	C1024.137817,1145.109741 1024.048584,1145.060913 1024.049072,1145.096436 
	C1024.049561,1145.132080 1024.102295,1145.170044 1024.120117,1145.139893 
z"/>
<path fill="#D83658" opacity="1.000000" stroke="none" 
	d="
M332.011780,1147.011597 
	C332.049072,1147.007446 332.061707,1147.006592 332.021210,1147.008667 
	C331.980713,1147.010742 331.974457,1147.015747 332.011780,1147.011597 
z"/>
</svg>